<svg data-v-423bf9ae="" xmlns="http://www.w3.org/2000/svg" viewBox="0 0 531.9840877683076 60" class="font"><!----><!----><!----><g data-v-423bf9ae="" id="32716658-fa90-42e6-b01a-0b66825aff68" fill="black" transform="matrix(7.936507495993244,0,0,7.936507495993244,-1.1111041564773245,-12.539681714999013)"><path d="M2.94 1.86L0.14 8.86L2.24 8.86L2.67 7.67L5.45 7.67L5.88 8.86L7.98 8.86L5.18 1.86L2.94 1.86ZM3.25 6.06L4.06 3.81L4.87 6.06L3.25 6.06ZM8.75 1.86L8.75 8.86L10.71 8.86L10.71 6.20L12.81 8.86L15.05 8.86L12.99 6.16L12.99 6.16Q13.75 6.01 14.20 5.55L14.20 5.55L14.20 5.55Q14.66 5.10 14.66 4.27L14.66 4.27L14.66 4.27Q14.66 3.39 14.29 2.86L14.29 2.86L14.29 2.86Q13.93 2.32 13.29 2.09L13.29 2.09L13.29 2.09Q12.66 1.86 11.83 1.86L11.83 1.86L11.83 1.86Q11.06 1.86 10.29 1.86L10.29 1.86L10.29 1.86Q9.52 1.86 8.75 1.86L8.75 1.86ZM10.71 3.47L11.65 3.47L11.65 3.47Q12.04 3.47 12.33 3.62L12.33 3.62L12.33 3.62Q12.63 3.77 12.63 4.27L12.63 4.27L12.63 4.27Q12.63 4.77 12.33 4.93L12.33 4.93L12.33 4.93Q12.04 5.08 11.65 5.08L11.65 5.08L10.71 5.08L10.71 3.47ZM15.75 5.36L15.75 5.36L15.75 5.36Q15.75 6.41 16.21 7.27L16.21 7.27L16.21 7.27Q16.66 8.12 17.52 8.63L17.52 8.63L17.52 8.63Q18.38 9.14 19.60 9.14L19.60 9.14L19.60 9.14Q20.82 9.14 21.68 8.63L21.68 8.63L21.68 8.63Q22.54 8.12 23.00 7.27L23.00 7.27L23.00 7.27Q23.45 6.41 23.45 5.36L23.45 5.36L23.45 5.36Q23.45 4.31 23.00 3.46L23.00 3.46L23.00 3.46Q22.54 2.60 21.68 2.09L21.68 2.09L21.68 2.09Q20.82 1.58 19.60 1.58L19.60 1.58L19.60 1.58Q18.38 1.58 17.52 2.09L17.52 2.09L17.52 2.09Q16.66 2.60 16.21 3.46L16.21 3.46L16.21 3.46Q15.75 4.31 15.75 5.36ZM17.78 5.36L17.78 5.36L17.78 5.36Q17.78 4.70 18.05 4.26L18.05 4.26L18.05 4.26Q18.33 3.81 18.75 3.57L18.75 3.57L18.75 3.57Q19.17 3.33 19.60 3.33L19.60 3.33L19.60 3.33Q20.03 3.33 20.45 3.57L20.45 3.57L20.45 3.57Q20.87 3.81 21.15 4.26L21.15 4.26L21.15 4.26Q21.42 4.70 21.42 5.36L21.42 5.36L21.42 5.36Q21.42 6.02 21.15 6.47L21.15 6.47L21.15 6.47Q20.87 6.92 20.45 7.15L20.45 7.15L20.45 7.15Q20.03 7.39 19.60 7.39L19.60 7.39L19.60 7.39Q19.17 7.39 18.75 7.15L18.75 7.15L18.75 7.15Q18.33 6.92 18.05 6.47L18.05 6.47L18.05 6.47Q17.78 6.02 17.78 5.36ZM26.46 5.75L26.46 5.75L26.46 1.86L24.50 1.86L24.50 5.75L24.50 5.75Q24.50 7.20 25.30 8.10L25.30 8.10L25.30 8.10Q26.10 9.00 27.75 9.00L27.75 9.00L27.75 9.00Q29.40 9.00 30.20 8.15L30.20 8.15L30.20 8.15Q31.00 7.29 31.00 5.75L31.00 5.75L31.00 1.86L29.04 1.86L29.04 5.75L29.04 5.75Q29.04 6.47 28.69 6.86L28.69 6.86L28.69 6.86Q28.35 7.25 27.75 7.25L27.75 7.25L27.75 7.25Q27.15 7.25 26.80 6.86L26.80 6.86L26.80 6.86Q26.46 6.47 26.46 5.75ZM32.26 1.86L32.26 8.86L34.22 8.86L34.22 4.42L36.88 8.86L39.26 8.86L39.26 1.86L37.30 1.86L37.30 6.30L34.64 1.86L32.26 1.86ZM40.52 1.86L40.52 8.86L40.52 8.86Q41.29 8.86 42.06 8.86L42.06 8.86L42.06 8.86Q42.83 8.86 43.60 8.86L43.60 8.86L43.60 8.86Q45.43 8.86 46.33 7.90L46.33 7.90L46.33 7.90Q47.24 6.93 47.24 5.36L47.24 5.36L47.24 5.36Q47.24 3.79 46.33 2.83L46.33 2.83L46.33 2.83Q45.43 1.86 43.60 1.86L43.60 1.86L43.60 1.86Q42.83 1.86 42.06 1.86L42.06 1.86L42.06 1.86Q41.29 1.86 40.52 1.86L40.52 1.86ZM43.60 7.18L43.60 7.18L42.48 7.18L42.48 3.54L43.60 3.54L43.60 3.54Q44.25 3.54 44.73 3.96L44.73 3.96L44.73 3.96Q45.21 4.38 45.21 5.36L45.21 5.36L45.21 5.36Q45.21 6.34 44.73 6.76L44.73 6.76L44.73 6.76Q44.25 7.18 43.60 7.18ZM48.29 1.86L48.29 8.86L48.29 8.86Q49.62 8.86 50.95 8.86L50.95 8.86L50.95 8.86Q52.28 8.86 53.61 8.86L53.61 8.86L53.61 7.18L50.25 7.18L50.25 6.13L53.19 6.13L53.19 4.52L50.25 4.52L50.25 3.47L53.61 3.47L53.61 1.86L53.61 1.86Q52.28 1.86 50.95 1.86L50.95 1.86L50.95 1.86Q49.62 1.86 48.29 1.86L48.29 1.86ZM54.66 1.86L54.66 8.86L56.62 8.86L56.62 6.20L58.72 8.86L60.96 8.86L58.90 6.16L58.90 6.16Q59.65 6.01 60.11 5.55L60.11 5.55L60.11 5.55Q60.56 5.10 60.56 4.27L60.56 4.27L60.56 4.27Q60.56 3.39 60.20 2.86L60.20 2.86L60.20 2.86Q59.84 2.32 59.20 2.09L59.20 2.09L59.20 2.09Q58.56 1.86 57.74 1.86L57.74 1.86L57.74 1.86Q56.97 1.86 56.20 1.86L56.20 1.86L56.20 1.86Q55.43 1.86 54.66 1.86L54.66 1.86ZM56.62 3.47L57.55 3.47L57.55 3.47Q57.95 3.47 58.24 3.62L58.24 3.62L58.24 3.62Q58.53 3.77 58.53 4.27L58.53 4.27L58.53 4.27Q58.53 4.77 58.24 4.93L58.24 4.93L58.24 4.93Q57.95 5.08 57.55 5.08L57.55 5.08L56.62 5.08L56.62 3.47ZM65.14 6.76L65.14 6.76L65.14 6.76Q65.14 7.08 64.87 7.20L64.87 7.20L64.87 7.20Q64.60 7.32 64.20 7.32L64.20 7.32L64.20 7.32Q63.87 7.32 63.46 7.18L63.46 7.18L63.46 7.18Q63.06 7.04 62.67 6.81L62.67 6.81L62.67 6.81Q62.29 6.58 62.01 6.31L62.01 6.31L61.45 7.92L61.45 7.92Q61.87 8.41 62.59 8.74L62.59 8.74L62.59 8.74Q63.32 9.07 64.34 9.07L64.34 9.07L64.34 9.07Q65.10 9.07 65.74 8.86L65.74 8.86L65.74 8.86Q66.39 8.64 66.78 8.13L66.78 8.13L66.78 8.13Q67.17 7.62 67.17 6.73L67.17 6.73L67.17 6.73Q67.17 6.13 66.86 5.73L66.86 5.73L66.86 5.73Q66.54 5.33 66.07 5.07L66.07 5.07L66.07 5.07Q65.60 4.80 65.14 4.61L65.14 4.61L65.14 4.61Q64.68 4.41 64.37 4.22L64.37 4.22L64.37 4.22Q64.05 4.03 64.05 3.78L64.05 3.78L64.05 3.78Q64.05 3.58 64.17 3.46L64.17 3.46L64.17 3.46Q64.29 3.33 64.58 3.33L64.58 3.33L64.58 3.33Q65.09 3.33 65.58 3.67L65.58 3.67L65.58 3.67Q66.07 4.00 66.49 4.41L66.49 4.41L67.05 2.87L67.05 2.87Q65.98 1.65 64.57 1.65L64.57 1.65L64.57 1.65Q63.81 1.65 63.20 1.90L63.20 1.90L63.20 1.90Q62.59 2.16 62.24 2.63L62.24 2.63L62.24 2.63Q61.88 3.11 61.88 3.78L61.88 3.78L61.88 3.78Q61.88 4.31 62.12 4.68L62.12 4.68L62.12 4.68Q62.36 5.04 62.73 5.30L62.73 5.30L62.73 5.30Q63.10 5.56 63.51 5.74L63.51 5.74L63.51 5.74Q63.92 5.92 64.30 6.08L64.30 6.08L64.30 6.08Q64.67 6.23 64.90 6.39L64.90 6.39L64.90 6.39Q65.14 6.55 65.14 6.76Z"></path></g><!----><!----></svg>