<?xml version="1.0" standalone="no"?>
<!DOCTYPE svg PUBLIC "-//W3C//DTD SVG 20010904//EN"
 "http://www.w3.org/TR/2001/REC-SVG-20010904/DTD/svg10.dtd">
<svg version="1.0" xmlns="http://www.w3.org/2000/svg"
 width="1202.000000pt" height="1280.000000pt" viewBox="0 0 1202.000000 1280.000000"
 preserveAspectRatio="xMidYMid meet">
<metadata>
Created by potrace 1.15, written by Peter Selinger 2001-2017
</metadata>
<g transform="translate(0.000000,1280.000000) scale(0.100000,-0.100000)"
fill="#000000" stroke="none">
<path d="M5770 12793 c-19 -1 -87 -8 -150 -14 -1079 -101 -2100 -714 -2704
-1624 -51 -77 -105 -159 -119 -182 -15 -24 -32 -42 -38 -40 -6 1 -19 -25 -29
-58 -9 -33 -29 -80 -43 -105 -41 -73 -141 -305 -191 -445 -119 -335 -183 -659
-206 -1040 -10 -167 -10 -515 0 -525 3 -3 13 -68 23 -145 152 -1229 930 -2321
2042 -2865 339 -166 677 -275 1020 -330 72 -11 148 -25 170 -29 36 -8 33 -9
-32 -10 -248 -4 -822 -70 -1182 -136 -114 -21 -165 -25 -333 -25 l-198 0 -247
-115 c-137 -64 -273 -123 -303 -132 -255 -73 -750 -278 -1048 -434 -612 -320
-1000 -614 -1475 -1116 -74 -78 -427 -524 -427 -538 0 -3 9 -5 20 -5 26 0 25
-6 -6 -60 -88 -152 -212 -481 -253 -672 -56 -261 -75 -533 -47 -659 90 -405
586 -738 1481 -994 2303 -659 6727 -659 9030 0 784 224 1268 512 1431 849 54
111 68 196 61 361 -16 365 -101 689 -279 1055 -70 145 -57 122 -132 236 -209
317 -458 605 -705 814 -55 47 -100 88 -100 93 -1 4 10 5 24 1 14 -3 25 -4 25
-1 0 3 -64 45 -142 93 -79 49 -197 125 -263 170 -490 334 -1117 635 -1695 814
-58 17 -238 79 -401 136 l-296 104 -115 0 c-79 0 -157 8 -249 25 -369 67 -955
134 -1187 135 -90 1 -80 14 18 24 107 12 345 62 500 106 390 111 806 312 1135
549 254 183 555 468 742 703 412 519 679 1131 772 1772 11 77 24 142 29 145 4
3 7 164 7 356 -1 364 -9 459 -55 718 -49 276 -151 602 -263 849 -20 42 -40
102 -46 132 -6 31 -16 80 -22 110 -10 53 -11 55 -48 61 -36 6 -42 13 -121 139
-529 851 -1381 1454 -2360 1670 -141 31 -352 61 -523 75 -117 10 -413 12 -497
4z"/>
</g>
</svg>
